<mxfile host="app.diagrams.net" modified="2023-09-22T15:58:57.521Z" agent="Mozilla/5.0 (X11; Linux x86_64; rv:103.0) Gecko/20100101 Firefox/103.0" etag="yxOtMtLRIHF2JIhQEZ_6" version="21.7.1" type="github">
  <diagram name="Página-1" id="E60-TByCzL1ItN2snHZ5">
    <mxGraphModel dx="1434" dy="718" grid="0" gridSize="10" guides="1" tooltips="1" connect="1" arrows="1" fold="1" page="0" pageScale="1" pageWidth="827" pageHeight="1169" math="0" shadow="0">
      <root>
        <mxCell id="0" />
        <mxCell id="1" parent="0" />
        <mxCell id="dQ6jW3ZK22RuGdUFkdGf-15" style="edgeStyle=none;curved=1;rounded=0;orthogonalLoop=1;jettySize=auto;html=1;entryX=0;entryY=0.5;entryDx=0;entryDy=0;fontSize=12;startSize=8;endSize=8;" parent="1" source="dQ6jW3ZK22RuGdUFkdGf-2" target="dQ6jW3ZK22RuGdUFkdGf-14" edge="1">
          <mxGeometry relative="1" as="geometry" />
        </mxCell>
        <mxCell id="dQ6jW3ZK22RuGdUFkdGf-2" value="CLIENTE" style="swimlane;whiteSpace=wrap;html=1;fontSize=16;" parent="1" vertex="1">
          <mxGeometry x="20" y="100" width="200" height="200" as="geometry" />
        </mxCell>
        <mxCell id="dQ6jW3ZK22RuGdUFkdGf-3" value="RG" style="text;html=1;align=center;verticalAlign=middle;resizable=0;points=[];autosize=1;strokeColor=none;fillColor=none;fontSize=16;" parent="dQ6jW3ZK22RuGdUFkdGf-2" vertex="1">
          <mxGeometry y="24" width="39" height="31" as="geometry" />
        </mxCell>
        <mxCell id="dQ6jW3ZK22RuGdUFkdGf-4" value="Nome" style="text;html=1;align=center;verticalAlign=middle;resizable=0;points=[];autosize=1;strokeColor=none;fillColor=none;fontSize=16;" parent="dQ6jW3ZK22RuGdUFkdGf-2" vertex="1">
          <mxGeometry y="52" width="61" height="31" as="geometry" />
        </mxCell>
        <mxCell id="dQ6jW3ZK22RuGdUFkdGf-5" value="Telefone" style="text;html=1;align=center;verticalAlign=middle;resizable=0;points=[];autosize=1;strokeColor=none;fillColor=none;fontSize=16;" parent="dQ6jW3ZK22RuGdUFkdGf-2" vertex="1">
          <mxGeometry y="79" width="80" height="31" as="geometry" />
        </mxCell>
        <mxCell id="dQ6jW3ZK22RuGdUFkdGf-6" value="Endereço&amp;nbsp;" style="text;html=1;align=center;verticalAlign=middle;resizable=0;points=[];autosize=1;strokeColor=none;fillColor=none;fontSize=16;" parent="dQ6jW3ZK22RuGdUFkdGf-2" vertex="1">
          <mxGeometry y="110" width="89" height="31" as="geometry" />
        </mxCell>
        <mxCell id="dQ6jW3ZK22RuGdUFkdGf-9" value="PRODUTO" style="swimlane;whiteSpace=wrap;html=1;fontSize=16;" parent="1" vertex="1">
          <mxGeometry x="591" y="85" width="200" height="200" as="geometry" />
        </mxCell>
        <mxCell id="dQ6jW3ZK22RuGdUFkdGf-10" value="Nome" style="text;html=1;align=center;verticalAlign=middle;resizable=0;points=[];autosize=1;strokeColor=none;fillColor=none;fontSize=16;" parent="dQ6jW3ZK22RuGdUFkdGf-9" vertex="1">
          <mxGeometry x="0.5" y="24" width="61" height="31" as="geometry" />
        </mxCell>
        <mxCell id="dQ6jW3ZK22RuGdUFkdGf-11" value="Tipo" style="text;html=1;align=center;verticalAlign=middle;resizable=0;points=[];autosize=1;strokeColor=none;fillColor=none;fontSize=16;" parent="dQ6jW3ZK22RuGdUFkdGf-9" vertex="1">
          <mxGeometry x="0.5" y="50" width="50" height="31" as="geometry" />
        </mxCell>
        <mxCell id="dQ6jW3ZK22RuGdUFkdGf-12" value="Preço" style="text;html=1;align=center;verticalAlign=middle;resizable=0;points=[];autosize=1;strokeColor=none;fillColor=none;fontSize=16;" parent="dQ6jW3ZK22RuGdUFkdGf-9" vertex="1">
          <mxGeometry y="79" width="59" height="31" as="geometry" />
        </mxCell>
        <mxCell id="dQ6jW3ZK22RuGdUFkdGf-13" value="Quantidade" style="text;html=1;align=center;verticalAlign=middle;resizable=0;points=[];autosize=1;strokeColor=none;fillColor=none;fontSize=16;" parent="dQ6jW3ZK22RuGdUFkdGf-9" vertex="1">
          <mxGeometry x="-5" y="110" width="100" height="31" as="geometry" />
        </mxCell>
        <mxCell id="dQ6jW3ZK22RuGdUFkdGf-16" style="edgeStyle=none;curved=1;rounded=0;orthogonalLoop=1;jettySize=auto;html=1;fontSize=12;startSize=8;endSize=8;" parent="1" source="dQ6jW3ZK22RuGdUFkdGf-14" edge="1">
          <mxGeometry relative="1" as="geometry">
            <mxPoint x="594" y="200" as="targetPoint" />
          </mxGeometry>
        </mxCell>
        <mxCell id="dQ6jW3ZK22RuGdUFkdGf-14" value="Compra" style="rhombus;whiteSpace=wrap;html=1;fontSize=16;" parent="1" vertex="1">
          <mxGeometry x="320" y="160" width="124" height="80" as="geometry" />
        </mxCell>
        <mxCell id="dQ6jW3ZK22RuGdUFkdGf-17" value="1" style="text;html=1;strokeColor=none;fillColor=none;align=center;verticalAlign=middle;whiteSpace=wrap;rounded=0;fontSize=16;" parent="1" vertex="1">
          <mxGeometry x="246" y="142" width="60" height="64" as="geometry" />
        </mxCell>
        <mxCell id="dQ6jW3ZK22RuGdUFkdGf-18" value="N" style="text;html=1;strokeColor=none;fillColor=none;align=center;verticalAlign=middle;whiteSpace=wrap;rounded=0;fontSize=16;" parent="1" vertex="1">
          <mxGeometry x="472" y="142" width="60" height="67" as="geometry" />
        </mxCell>
      </root>
    </mxGraphModel>
  </diagram>
</mxfile>
